G04 #@! TF.GenerationSoftware,KiCad,Pcbnew,9.0.3*
G04 #@! TF.CreationDate,2025-07-20T15:55:04+08:00*
G04 #@! TF.ProjectId,totem_0_3,746f7465-6d5f-4305-9f33-2e6b69636164,0.3*
G04 #@! TF.SameCoordinates,Original*
G04 #@! TF.FileFunction,Paste,Top*
G04 #@! TF.FilePolarity,Positive*
%FSLAX46Y46*%
G04 Gerber Fmt 4.6, Leading zero omitted, Abs format (unit mm)*
G04 Created by KiCad (PCBNEW 9.0.3) date 2025-07-20 15:55:04*
%MOMM*%
%LPD*%
G01*
G04 APERTURE LIST*
%ADD10R,1.500000X1.800000*%
%ADD11R,0.700000X1.000000*%
%ADD12R,1.000000X2.800000*%
G04 APERTURE END LIST*
D10*
X159322435Y-103194348D03*
X159322435Y-106594348D03*
X140677565Y-67194348D03*
X140677565Y-70594348D03*
X159322435Y-81597348D03*
X159322435Y-84997348D03*
X159322435Y-74393348D03*
X159322435Y-77793348D03*
X162872435Y-67194348D03*
X162872435Y-70594348D03*
X133577565Y-95995348D03*
X133577565Y-99395348D03*
X162872435Y-74393348D03*
X162872435Y-77793348D03*
X162872435Y-103194348D03*
X162872435Y-106594348D03*
X166422435Y-95995348D03*
X166422435Y-99395348D03*
X166422435Y-81597348D03*
X166422435Y-84997348D03*
X166422435Y-67194348D03*
X166422435Y-70594348D03*
X140677565Y-103194348D03*
X140677565Y-106594348D03*
X159322435Y-88796348D03*
X159322435Y-92196348D03*
X133577565Y-67194348D03*
X133577565Y-70594348D03*
X137127565Y-74393348D03*
X137127565Y-77793348D03*
X166422435Y-103194348D03*
X166422435Y-106594348D03*
X140677565Y-81592348D03*
X140677565Y-84992348D03*
X162872435Y-88796348D03*
X162872435Y-92196348D03*
X137127565Y-103194348D03*
X137127565Y-106594348D03*
X159322435Y-67194348D03*
X159322435Y-70594348D03*
X137127565Y-95995348D03*
X137127565Y-99395348D03*
X137127565Y-81597348D03*
X137127565Y-84997348D03*
X162872435Y-95995348D03*
X162872435Y-99395348D03*
X159322435Y-95995348D03*
X159322435Y-99395348D03*
X133577565Y-74393348D03*
X133577565Y-77793348D03*
X133577565Y-103194348D03*
X133577565Y-106594348D03*
X137127565Y-88796348D03*
X137127565Y-92196348D03*
X140677565Y-74393348D03*
X140677565Y-77793348D03*
X166422435Y-88796348D03*
X166422435Y-92196348D03*
X166422435Y-74393348D03*
X166422435Y-77793348D03*
X140677565Y-88796348D03*
X140677565Y-92196348D03*
X133577565Y-81597348D03*
X133577565Y-84997348D03*
X133577565Y-88796348D03*
X133577565Y-92196348D03*
X137127565Y-67194348D03*
X137127565Y-70594348D03*
X140677565Y-95995348D03*
X140677565Y-99395348D03*
D11*
X67500000Y-53200000D03*
X64500000Y-53200000D03*
X63000000Y-53200000D03*
D12*
X69100000Y-51300000D03*
X61150000Y-51300000D03*
D10*
X162872435Y-81597348D03*
X162872435Y-84997348D03*
D11*
X237300000Y-53200000D03*
X234300000Y-53200000D03*
X232800000Y-53200000D03*
D12*
X230950000Y-51300000D03*
X238900000Y-51300000D03*
M02*
